<svg xmlns="http://www.w3.org/2000/svg" viewBox="0 0 1000 600"><defs><linearGradient id="g" x2="1" y2="1"><stop stop-color="#44464d"/><stop offset="1" stop-color="#111216"/></linearGradient><radialGradient id="r"><stop stop-color="#bec1c8" stop-opacity=".65"/><stop offset="1" stop-color="#22242a" stop-opacity="0"/></radialGradient></defs><rect width="1000" height="600" fill="url(#g)"/><circle cx="690" cy="295" r="340" fill="url(#r)"/><g fill="none" stroke="#d7d9df" stroke-opacity=".22"><path d="M490 120h390v360H490z"/><path d="M520 158h330M520 206h210M520 254h280M520 302h210M520 350h300M520 398h175"/><path d="M460 472 603 365l89 34 158-180" stroke-width="3"/><circle cx="603" cy="365" r="6" fill="#d7d9df"/><circle cx="692" cy="399" r="6" fill="#d7d9df"/><circle cx="850" cy="219" r="6" fill="#d7d9df"/></g><rect x="720" y="412" width="180" height="82" rx="8" fill="#1c1d22" stroke="#9699a1" stroke-opacity=".5"/><path d="M745 460h35l18-20 22 12 35-31 18 9" fill="none" stroke="#e1e3e8" stroke-width="2"/><circle cx="850" cy="421" r="4" fill="#e1e3e8"/></svg>
